<?xml version="1.0" encoding="UTF-8" standalone="no"?><!DOCTYPE svg PUBLIC "-//W3C//DTD SVG 1.1//EN" "http://www.w3.org/Graphics/SVG/1.1/DTD/svg11.dtd"><svg width="100%" height="100%" viewBox="0 0 100 100" version="1.1" xmlns="http://www.w3.org/2000/svg" xmlns:xlink="http://www.w3.org/1999/xlink" xml:space="preserve" xmlns:serif="http://www.serif.com/" style="fill-rule:evenodd;clip-rule:evenodd;stroke-linecap:round;stroke-linejoin:round;stroke-miterlimit:1.5;"><g><path d="M53.125,68.75l40.625,0" style="fill:none;stroke:#fff;stroke-width:8.33px;"/><path d="M84.375,59.375l-0,18.75l9.375,-9.375l-9.375,-9.375Z" style="fill:none;stroke:#fff;stroke-width:8.33px;"/></g><path d="M68.75,31.25l0,-16.562c0,-4.657 -3.781,-8.438 -8.438,-8.438l-45.624,0c-4.657,0 -8.438,3.781 -8.438,8.438l0,70.624c0,4.657 3.781,8.438 8.438,8.438l45.624,0c4.657,0 8.438,-3.781 8.438,-8.438l-0,-0.937" style="fill:none;stroke:#fff;stroke-width:8.33px;"/><g><path d="M84.375,46.875l-40.625,-0" style="fill:none;stroke:#fdfeff;stroke-width:8.33px;"/><path d="M53.125,56.25l0,-18.75l-9.375,9.375l9.375,9.375Z" style="fill:none;stroke:#fdfeff;stroke-width:8.33px;"/></g></svg>